<svg xmlns="http://www.w3.org/2000/svg" viewBox="0 0 164.03 171.66"><defs><style>.cls-1{fill:#fa99af;}.cls-2{fill:#f87797;}.cls-3{fill:#fff;}</style></defs><g id="Layer_2" data-name="Layer 2"><g id="Layer_19" data-name="Layer 19"><path class="cls-1" d="M64.69,9.59C79.58-2,102.4.49,117.17,12.28s22.23,30.86,24,49.67c1.8,19.17-2.33,39.92-15.77,53.71-7.91,8.12-18.42,13.25-29.14,16.93s-22.36,6.15-33.79,5.11A51.65,51.65,0,0,1,53.2,136C32,130.2,14.52,111.71,10.13,90c-5-24.8,6.85-51.88,27.95-65.83,6.35-4.19,13.69-7.33,21.29-7.12s15.4,4.39,18.3,11.42"/><path d="M65.45,10.89C76.1,3.2,90.37,2.39,102.56,6.64c13,4.51,22.68,14.72,28.73,26.8,11.56,23.13,12.5,56.48-4.29,77.42-9.06,11.31-22.85,17.52-36.45,21.48-15.36,4.48-31.65,5.27-46.3-2-23.46-11.62-37-37.73-31.87-63.54A64.85,64.85,0,0,1,33.32,30.66c11.29-9.77,33.54-18.74,42.45-1.06,1.3,2.58,4.9.31,3.81-2.23-6-14-23.36-14.71-35.51-9.15-13.4,6.12-24.18,17.87-30.5,31C.74,75.9,6.93,107.63,30.16,126.39A60.07,60.07,0,0,0,72.4,139.82c16.24-1.16,34.05-7,47.28-16.67,25-18.2,28.48-53.72,19.4-81.34-5.16-15.67-15.4-30.47-30.82-37.38-14.52-6.51-31.5-6-44.32,3.87-1.49,1.15-.08,3.74,1.51,2.59Z"/><path class="cls-2" d="M72.35,29.43c-1-6.28-8.85-9.23-14.43-9.82a32.48,32.48,0,0,0-20.49,4.74c-7.11,4.51-12.59,11.41-17.36,18.22S10.34,57,8.91,65.12c-2.65,15,3.46,31.23,11.36,43.84,7.67,12.25,19.45,22.88,33.23,27.65,6.11,2.12,9.33-6.83,4.25-10.09C38.18,114,22.11,95.8,21.5,71.36,21.18,58.46,31,44.51,40.33,36.3a22.27,22.27,0,0,1,16.06-5.76c4.81.21,10,2.18,14.72,1.06a1.81,1.81,0,0,0,1.24-2.17Z"/><path d="M79,28c-6.15-13.73-22.49-14.88-34.79-9.31C30.87,24.72,20.09,36.44,13.82,49.59,1.14,76.16,7.19,107.8,30.36,126.5a60.43,60.43,0,0,0,43,13.43c16.24-1.28,34-7.09,47.12-16.88,25-18.55,28.11-54.94,18.38-82.51-5.54-15.71-16.11-30-31.78-36.62-14.28-6-31.47-5.49-43.88,4.36-2,1.54.62,4.9,2.67,3.46,10.84-7.62,24.23-8.92,36.69-4.65,12.92,4.43,22.61,14.66,28.61,26.7,11.48,23,12.44,56.3-4.23,77.19-9,11.29-22.81,17.51-36.34,21.56C75.22,137.13,59,138,44.24,130.74,20.67,119.11,7,92.9,12.23,67a65.16,65.16,0,0,1,21-36.23c11.17-9.65,34.41-19.3,43.19-1.28.85,1.75,3.37.22,2.59-1.52Z"/><path d="M60.94,68.56a1.77,1.77,0,0,0-.47-2.41,2.45,2.45,0,0,0-3.25.45c-2.82,2.67-2.6,6.51-2.33,10a1.59,1.59,0,0,0,2.67,1.11,15,15,0,0,0,4.33-9.19c.15-1.44-.15-3-1.67-3.59a2.35,2.35,0,0,0-3.11,1.72,1.89,1.89,0,0,0,3.43,1.45l.16-.25-1.15.88.34,0-1.54-.2q-.63-1.23-.54,0a10.14,10.14,0,0,1-.23,1.34,14.61,14.61,0,0,1-.51,1.83,26.49,26.49,0,0,1-2,4.13h2.7a6.37,6.37,0,0,1-.21-4.55,9,9,0,0,1,.79-1.93c.15-.26,1.58-1.87,1.36-1.28s.81,1.1,1.2.5Z"/><path d="M9.41,96.26l.3-.28a1.18,1.18,0,0,0,.18-1.39c-2.2-4.86-6.43,5.16-6.86,6.23A39.6,39.6,0,0,0,.72,123.43c.36,1.83,3.53,1.45,3.31-.45C3,113.7,3.79,103.19,9.68,95.46l-1.82.48-.15-.67a1,1,0,0,0,1.7,1Z"/><path d="M141,93.16a1.25,1.25,0,0,0-.26,1.65,10.23,10.23,0,0,0,.73,2A13.33,13.33,0,0,0,142.69,99a11.84,11.84,0,0,0,4.2,3.88,10.26,10.26,0,0,0,10.38-.28c9.08-5.85,4.6-18.64,6.7-27.26A2,2,0,0,0,160,74.3c-2,6.66.3,13.66-1.57,20.32-1.43,5.09-6.43,8.3-11.38,5.08-3.23-2.1-3-5.89-5.55-8a1.1,1.1,0,0,0-1.3-.16,1.63,1.63,0,0,0-1,1.3.83.83,0,0,0,.21.81l.31.26c.5.41,1.55,0,1.24-.72Z"/><path d="M42.66,134.51c-1.72-.24-5.21,11.27-5.6,12.56a61.78,61.78,0,0,0-2.29,10.58c-.69,6,.83,12.32,7.34,14a1.55,1.55,0,0,0,.82-3c-9.26-2.53-4.66-17-2.66-23.38.82-2.62,3.28-6.33,3.42-9,.06-1.25.37-1.26-.47-2.31A.84.84,0,0,0,42,134c-.48.4-.46.67-.36,1.27a.61.61,0,0,0,.6.46h.22c.63,0,.87-1.08.16-1.19Z"/><path d="M99.6,136.92l1.11-2.66-1.77-1c-2.34,6.91-7.4,15.52-2.52,22.54,3.59,5.15,10.62,6,16.42,6.18,2.22.05,2.15-3.22,0-3.4-5.18-.45-11.94-.75-14.39-6.22-2.68-6,1.12-12.66,2.54-18.54.27-1.12-1.41-1.95-1.94-.82a7.27,7.27,0,0,0-.84,3.95.7.7,0,0,0,1.39,0Z"/><path d="M105.26,60c-1.4,1.65-1.65,4.3-2.17,6.34a1.76,1.76,0,0,0,2.55,2c3-1.43,4.28-6,1.9-8.51a1.77,1.77,0,0,0-2.93,1.71c.48,1.39.72,2.88-.72,3.8l2.61,1.5c.24-2,1-4.48.29-6.39a.92.92,0,0,0-1.53-.41Z"/><path d="M51.74,59.27c.25-.39.7-.85,1-1.23a4.93,4.93,0,0,1,1.47-1.26c1.23-.69,2.36-.48,3.68-.6,1-.08,1.88-1.43.91-2.2-1.7-1.35-4.18-.95-5.93.15a6.67,6.67,0,0,0-2.13,2.13,3.57,3.57,0,0,0-.49,2.61.81.81,0,0,0,1.49.4Z"/><path d="M102.13,50.38c1.44.14,2.36-1.17,3.74-1.49a5.84,5.84,0,0,1,4,.49c1.52.73,3.32-1.2,1.91-2.48a6.77,6.77,0,0,0-6.37-1.43c-1.79.5-4.85,2.16-3.92,4.4a.76.76,0,0,0,.68.51Z"/><path class="cls-3" d="M105.22,93.9a8.1,8.1,0,0,1,3.32-.27C93.71,94.38,78.13,95,64.82,88.4a2.17,2.17,0,0,0-1.45-.35c-1.32.33-.84,2.33-.07,3.46l5.49,8c1.88,2.75,3.92,5.63,7,6.91s6.64.7,9.6-.78a34.66,34.66,0,0,0,7.86-6,12.57,12.57,0,0,0,2.88-3.38"/><path d="M105.69,95.58l2.85-.2V91.89c-10.94.55-22.15,1.12-32.9-1.47a55.52,55.52,0,0,1-9.17-3.16,6.26,6.26,0,0,0-3.1-1c-2.15.27-2.77,2.32-2.37,4.16.83,3.91,5.19,8.52,7.53,11.69,2.14,2.91,4.7,5.6,8.35,6.44,7.9,1.81,16.73-5.27,20.75-11.47,1.22-1.88-1.8-3.63-3-1.76-4.5,6.95-15.15,14.07-22,6.39-2.57-2.88-4.41-6.42-6.69-9.52-1.24-1.7-3-2.63-.41-1.61,1.22.48,2.32,1,3.56,1.45,12.57,4.6,26.36,4,39.49,3.3a1.75,1.75,0,0,0,0-3.49,13,13,0,0,0-3.78.33c-2.2.41-1.27,3.77.93,3.36Z"/></g></g></svg>